<svg width="1728" height="455" viewBox="0 0 1728 455" fill="none" xmlns="http://www.w3.org/2000/svg">
<path d="M0.25 145.872C18.9502 149.861 36.6489 149.44 54.7088 147.556C62.862 146.705 71.092 145.556 79.5202 144.379C80.4757 144.246 81.4338 144.112 82.3946 143.978C91.8318 142.664 101.534 141.354 111.679 140.419C152.244 136.682 199.907 138.945 265.829 171.062C282.271 179.073 297.948 194.193 313.494 213.472C325.234 228.03 336.888 244.947 348.733 262.941C304.307 327.902 260.673 360.626 220.145 373.068C178.693 385.794 140.449 377.314 107.866 360.335C75.2783 343.355 48.3643 317.88 29.5936 296.642C20.2092 286.024 12.8627 276.468 7.8626 269.567C5.3626 266.116 3.44932 263.33 2.16134 261.406C1.51735 260.445 1.0297 259.699 0.703198 259.193C0.539949 258.941 0.416989 258.748 0.334921 258.619C0.298576 258.562 0.270252 258.517 0.25 258.485V145.872ZM360.736 280.457C356.911 274.54 353.113 268.689 349.335 262.946C350.292 261.545 351.25 260.128 352.208 258.696C374.917 224.757 413.426 199.282 463.466 180.698C513.504 162.114 575.051 150.43 643.804 144.056C716.05 137.358 796.243 136.526 879.384 139.709C864.884 158.17 850.253 178.763 835.508 201.66C746.443 339.961 674.574 411.147 614.831 439.168C584.968 453.176 558.138 456.395 533.702 451.825C509.262 447.256 487.193 434.891 466.861 417.695C428.23 385.023 395.912 334.951 365.539 287.895C363.933 285.406 362.332 282.925 360.736 280.457ZM1108.28 156.309C1032.37 148.275 955.195 142.139 880.383 139.247C953.218 46.7926 1022.7 8.23272 1086.82 1.81758C1163.89 -5.89196 1233.31 32.8137 1291.64 80.4011C1320.81 104.192 1347.19 130.195 1370.37 153.711C1374.65 158.06 1378.83 162.324 1382.9 166.474C1394.43 178.254 1405.07 189.11 1414.73 198.358C1322.2 183.083 1216.53 167.766 1108.28 156.309ZM1430.16 211.71C1425.78 208 1421.14 203.772 1416.25 199.116C1437.27 202.591 1457.6 206.062 1477.13 209.485C1477.12 209.52 1477.11 209.555 1477.1 209.59C1474.9 218.747 1471.65 224.279 1467.44 226.864C1463.25 229.44 1458.03 229.132 1451.78 226.422C1445.54 223.712 1438.31 218.618 1430.16 211.71ZM1538.64 220.061C1519.41 216.501 1499.05 212.822 1477.73 209.084C1479.84 199.928 1480.92 187.36 1480.92 170.838C1480.92 137.063 1483.51 111.448 1488.2 92.4656C1492.89 73.4802 1499.67 61.1539 1508.02 53.9241C1516.36 46.7026 1526.31 44.5408 1537.41 45.9465C1548.51 47.3534 1560.75 52.3334 1573.65 59.3878C1591.35 69.0676 1610.25 82.6236 1629.09 96.1448C1637.72 102.337 1646.34 108.522 1654.83 114.324C1668.34 123.554 1681.51 131.812 1693.87 137.569C1706.11 143.273 1717.57 146.534 1727.75 145.831V258.244L1727.19 258.117C1726.61 257.987 1725.76 257.794 1724.62 257.541C1722.36 257.035 1718.99 256.288 1714.6 255.325C1705.81 253.399 1692.89 250.609 1676.39 247.156C1643.39 240.25 1596.03 230.687 1538.64 220.061Z" stroke="url(#paint0_linear_996_1890)" stroke-width="0.5"/>
<defs>
<linearGradient id="paint0_linear_996_1890" x1="-79.8614" y1="31.9317" x2="935.744" y2="1239.76" gradientUnits="userSpaceOnUse">
<stop stop-color="#710CA6" stop-opacity="0.96"/>
<stop offset="0.947917" stop-color="#771FE8" stop-opacity="0.88"/>
</linearGradient>
</defs>
</svg>
